<svg width="40" height="40" viewBox="0 0 40 40" xmlns="http://www.w3.org/2000/svg">
  <defs>
    <linearGradient id="darkBgGradient40" x1="0%" y1="0%" x2="100%" y2="100%">
      <stop offset="0%" style="stop-color:#8B5A9F;stop-opacity:1" />
      <stop offset="50%" style="stop-color:#2C5F6F;stop-opacity:1" />
      <stop offset="100%" style="stop-color:#1E3A5F;stop-opacity:1" />
    </linearGradient>
    <linearGradient id="darkCat1Gradient40" x1="0%" y1="0%" x2="100%" y2="100%">
      <stop offset="0%" style="stop-color:#F5F5F5;stop-opacity:1" />
      <stop offset="100%" style="stop-color:#E0E0E0;stop-opacity:1" />
    </linearGradient>
    <linearGradient id="darkCat2Gradient40" x1="0%" y1="0%" x2="100%" y2="100%">
      <stop offset="0%" style="stop-color:#FFFAF0;stop-opacity:1" />
      <stop offset="100%" style="stop-color:#F0F8FF;stop-opacity:1" />
    </linearGradient>
  </defs>
  
  <!-- Background circle -->
  <circle cx="20" cy="20" r="18.5" fill="url(#darkBgGradient40)" stroke="#555" stroke-width="1"/>
  
  <!-- Left cat (silver) -->
  <g transform="translate(7,10)">
    <!-- Cat body -->
    <ellipse cx="5" cy="7.5" rx="4.5" ry="5.5" fill="url(#darkCat1Gradient40)" stroke="#C0C0C0" stroke-width="0.5"/>
    <!-- Cat head -->
    <circle cx="5" cy="3.8" r="3.2" fill="url(#darkCat1Gradient40)" stroke="#C0C0C0" stroke-width="0.5"/>
    <!-- Cat ears -->
    <polygon points="2.5,1.2 3.8,0 5.0,1.2" fill="url(#darkCat1Gradient40)" stroke="#C0C0C0" stroke-width="0.3"/>
    <polygon points="5.0,1.2 6.2,0 7.5,1.2" fill="url(#darkCat1Gradient40)" stroke="#C0C0C0" stroke-width="0.3"/>
    <!-- Inner ears -->
    <polygon points="3.0,1.0 3.8,0.5 4.5,1.0" fill="#DCDCDC"/>
    <polygon points="5.5,1.0 6.2,0.5 7.0,1.0" fill="#DCDCDC"/>
    <!-- Eyes -->
    <circle cx="3.8" cy="3.2" r="0.6" fill="#333"/>
    <circle cx="6.2" cy="3.2" r="0.6" fill="#333"/>
    <circle cx="3.9" cy="3.0" r="0.2" fill="#fff"/>
    <circle cx="6.3" cy="3.0" r="0.2" fill="#fff"/>
    <!-- Nose -->
    <polygon points="5,4.0 4.7,4.5 5.3,4.5" fill="#FF69B4"/>
    <!-- Mouth -->
    <path d="M 4.5,4.7 Q 5,5.2 5.5,4.7" stroke="#333" stroke-width="0.3" fill="none"/>
    <!-- Whiskers -->
    <line x1="2.0" y1="3.8" x2="3.2" y2="3.5" stroke="#666" stroke-width="0.2"/>
    <line x1="2.0" y1="4.2" x2="3.2" y2="4.0" stroke="#666" stroke-width="0.2"/>
    <line x1="6.8" y1="3.5" x2="8.0" y2="3.8" stroke="#666" stroke-width="0.2"/>
    <line x1="6.8" y1="4.0" x2="8.0" y2="4.2" stroke="#666" stroke-width="0.2"/>
    <!-- Tail -->
    <path d="M 1.2,10 Q -1.2,7.5 0,5" stroke="#C0C0C0" stroke-width="1" fill="none" stroke-linecap="round"/>
  </g>
  
  <!-- Right cat (cream) -->
  <g transform="translate(18,10)">
    <!-- Cat body -->
    <ellipse cx="5" cy="7.5" rx="4.5" ry="5.5" fill="url(#darkCat2Gradient40)" stroke="#D2B48C" stroke-width="0.5"/>
    <!-- Cat head -->
    <circle cx="5" cy="3.8" r="3.2" fill="url(#darkCat2Gradient40)" stroke="#D2B48C" stroke-width="0.5"/>
    <!-- Cat ears -->
    <polygon points="2.5,1.2 3.8,0 5.0,1.2" fill="url(#darkCat2Gradient40)" stroke="#D2B48C" stroke-width="0.3"/>
    <polygon points="5.0,1.2 6.2,0 7.5,1.2" fill="url(#darkCat2Gradient40)" stroke="#D2B48C" stroke-width="0.3"/>
    <!-- Inner ears -->
    <polygon points="3.0,1.0 3.8,0.5 4.5,1.0" fill="#F5DEB3"/>
    <polygon points="5.5,1.0 6.2,0.5 7.0,1.0" fill="#F5DEB3"/>
    <!-- Eyes -->
    <circle cx="3.8" cy="3.2" r="0.6" fill="#333"/>
    <circle cx="6.2" cy="3.2" r="0.6" fill="#333"/>
    <circle cx="3.9" cy="3.0" r="0.2" fill="#fff"/>
    <circle cx="6.3" cy="3.0" r="0.2" fill="#fff"/>
    <!-- Nose -->
    <polygon points="5,4.0 4.7,4.5 5.3,4.5" fill="#DAA520"/>
    <!-- Mouth -->
    <path d="M 4.5,4.7 Q 5,5.2 5.5,4.7" stroke="#333" stroke-width="0.3" fill="none"/>
    <!-- Whiskers -->
    <line x1="2.0" y1="3.8" x2="3.2" y2="3.5" stroke="#666" stroke-width="0.2"/>
    <line x1="2.0" y1="4.2" x2="3.2" y2="4.0" stroke="#666" stroke-width="0.2"/>
    <line x1="6.8" y1="3.5" x2="8.0" y2="3.8" stroke="#666" stroke-width="0.2"/>
    <line x1="6.8" y1="4.0" x2="8.0" y2="4.2" stroke="#666" stroke-width="0.2"/>
    <!-- Tail -->
    <path d="M 8.8,10 Q 11.2,7.5 10,5" stroke="#D2B48C" stroke-width="1" fill="none" stroke-linecap="round"/>
  </g>
  
  <!-- Code symbols around cats -->
  <text x="5" y="32" font-family="monospace" font-size="4.5" fill="#fff" text-anchor="middle" font-weight="bold">&lt;/&gt;</text>
  <text x="35" y="32" font-family="monospace" font-size="4.5" fill="#fff" text-anchor="middle" font-weight="bold">API</text>
  
  <!-- Small hearts -->
  <path d="M 20,6 Q 18.5,4.5 17,6 Q 18.5,7.5 20,6 Q 21.5,7.5 23,6 Q 21.5,4.5 20,6" fill="#9370DB" opacity="0.8"/>
</svg>