<svg width="64" height="64" viewBox="0 0 64 64" xmlns="http://www.w3.org/2000/svg">
  <!-- 简洁的背景圆形 -->
  <circle cx="32" cy="32" r="28" fill="#6B7FFF" stroke="#4A5BCC" stroke-width="4"/>
  
  <!-- 猫咪头部 -->
  <circle cx="32" cy="34" r="18" fill="#FFFFFF" stroke="#333" stroke-width="4"/>
  
  <!-- 猫耳朵 -->
  <polygon points="22,20 26,12 30,20" fill="#FFFFFF" stroke="#333" stroke-width="4" stroke-linejoin="round"/>
  <polygon points="34,20 38,12 42,20" fill="#FFFFFF" stroke="#333" stroke-width="4" stroke-linejoin="round"/>
  
  <!-- 耳朵内部 -->
  <polygon points="24,18 26,14 28,18" fill="#FFB6C1" stroke="none"/>
  <polygon points="36,18 38,14 40,18" fill="#FFB6C1" stroke="none"/>
  
  <!-- 眼睛 -->
  <circle cx="26" cy="30" r="3.2" fill="#333"/>
  <circle cx="38" cy="30" r="3.2" fill="#333"/>
  
  <!-- 眼睛高光 -->
  <circle cx="26.8" cy="29.2" r="1.2" fill="#FFFFFF"/>
  <circle cx="38.8" cy="29.2" r="1.2" fill="#FFFFFF"/>
  
  <!-- 鼻子 -->
  <polygon points="32,36 30,38 34,38" fill="#FF69B4" stroke="none"/>
  
  <!-- 嘴巴 -->
  <path d="M 28,40 Q 32,42 36,40" stroke="#333" stroke-width="4" fill="none" stroke-linecap="round"/>
  
  <!-- 胡须 -->
  <line x1="18" y1="32" x2="24" y2="31.2" stroke="#333" stroke-width="2.8" stroke-linecap="round"/>
  <line x1="18" y1="36" x2="24" y2="36" stroke="#333" stroke-width="2.8" stroke-linecap="round"/>
  <line x1="40" y1="31.2" x2="46" y2="32" stroke="#333" stroke-width="2.8" stroke-linecap="round"/>
  <line x1="40" y1="36" x2="46" y2="36" stroke="#333" stroke-width="2.8" stroke-linecap="round"/>
  
  <!-- 代码标识 -->
  <text x="32" y="56" font-family="monospace" font-size="10" fill="#FFFFFF" text-anchor="middle" font-weight="bold">&lt;/&gt;</text>
</svg>