<svg width="16" height="16" viewBox="0 0 16 16" xmlns="http://www.w3.org/2000/svg">
  <defs>
    <linearGradient id="darkBgGradient" x1="0%" y1="0%" x2="100%" y2="100%">
      <stop offset="0%" style="stop-color:#8B5A9F;stop-opacity:1" />
      <stop offset="50%" style="stop-color:#2C5F6F;stop-opacity:1" />
      <stop offset="100%" style="stop-color:#1E3A5F;stop-opacity:1" />
    </linearGradient>
    <linearGradient id="darkCat1Gradient" x1="0%" y1="0%" x2="100%" y2="100%">
      <stop offset="0%" style="stop-color:#F5F5F5;stop-opacity:1" />
      <stop offset="100%" style="stop-color:#E0E0E0;stop-opacity:1" />
    </linearGradient>
    <linearGradient id="darkCat2Gradient" x1="0%" y1="0%" x2="100%" y2="100%">
      <stop offset="0%" style="stop-color:#FFFAF0;stop-opacity:1" />
      <stop offset="100%" style="stop-color:#F0F8FF;stop-opacity:1" />
    </linearGradient>
  </defs>
  
  <!-- Background circle -->
  <circle cx="8" cy="8" r="7.5" fill="url(#darkBgGradient)" stroke="#555" stroke-width="0.5"/>
  
  <!-- Left cat (silver) -->
  <g transform="translate(3,4)">
    <!-- Cat body -->
    <ellipse cx="2" cy="3" rx="1.8" ry="2.2" fill="url(#darkCat1Gradient)" stroke="#C0C0C0" stroke-width="0.2"/>
    <!-- Cat head -->
    <circle cx="2" cy="1.5" r="1.3" fill="url(#darkCat1Gradient)" stroke="#C0C0C0" stroke-width="0.2"/>
    <!-- Cat ears -->
    <polygon points="1,0.5 1.5,0 2,0.5" fill="url(#darkCat1Gradient)" stroke="#C0C0C0" stroke-width="0.1"/>
    <polygon points="2,0.5 2.5,0 3,0.5" fill="url(#darkCat1Gradient)" stroke="#C0C0C0" stroke-width="0.1"/>
    <!-- Inner ears -->
    <polygon points="1.2,0.4 1.5,0.2 1.8,0.4" fill="#DCDCDC"/>
    <polygon points="2.2,0.4 2.5,0.2 2.8,0.4" fill="#DCDCDC"/>
    <!-- Eyes -->
    <circle cx="1.5" cy="1.3" r="0.25" fill="#333"/>
    <circle cx="2.5" cy="1.3" r="0.25" fill="#333"/>
    <circle cx="1.55" cy="1.25" r="0.08" fill="#fff"/>
    <circle cx="2.55" cy="1.25" r="0.08" fill="#fff"/>
    <!-- Nose -->
    <polygon points="2,1.6 1.9,1.8 2.1,1.8" fill="#FF69B4"/>
    <!-- Mouth -->
    <path d="M 1.8,1.9 Q 2,2.1 2.2,1.9" stroke="#333" stroke-width="0.1" fill="none"/>
    <!-- Whiskers -->
    <line x1="0.8" y1="1.5" x2="1.3" y2="1.4" stroke="#666" stroke-width="0.08"/>
    <line x1="0.8" y1="1.7" x2="1.3" y2="1.6" stroke="#666" stroke-width="0.08"/>
    <line x1="2.7" y1="1.4" x2="3.2" y2="1.5" stroke="#666" stroke-width="0.08"/>
    <line x1="2.7" y1="1.6" x2="3.2" y2="1.7" stroke="#666" stroke-width="0.08"/>
    <!-- Tail -->
    <path d="M 0.5,4 Q -0.5,3 0,2" stroke="#C0C0C0" stroke-width="0.4" fill="none" stroke-linecap="round"/>
  </g>
  
  <!-- Right cat (cream) -->
  <g transform="translate(7,4)">
    <!-- Cat body -->
    <ellipse cx="2" cy="3" rx="1.8" ry="2.2" fill="url(#darkCat2Gradient)" stroke="#D2B48C" stroke-width="0.2"/>
    <!-- Cat head -->
    <circle cx="2" cy="1.5" r="1.3" fill="url(#darkCat2Gradient)" stroke="#D2B48C" stroke-width="0.2"/>
    <!-- Cat ears -->
    <polygon points="1,0.5 1.5,0 2,0.5" fill="url(#darkCat2Gradient)" stroke="#D2B48C" stroke-width="0.1"/>
    <polygon points="2,0.5 2.5,0 3,0.5" fill="url(#darkCat2Gradient)" stroke="#D2B48C" stroke-width="0.1"/>
    <!-- Inner ears -->
    <polygon points="1.2,0.4 1.5,0.2 1.8,0.4" fill="#F5DEB3"/>
    <polygon points="2.2,0.4 2.5,0.2 2.8,0.4" fill="#F5DEB3"/>
    <!-- Eyes -->
    <circle cx="1.5" cy="1.3" r="0.25" fill="#333"/>
    <circle cx="2.5" cy="1.3" r="0.25" fill="#333"/>
    <circle cx="1.55" cy="1.25" r="0.08" fill="#fff"/>
    <circle cx="2.55" cy="1.25" r="0.08" fill="#fff"/>
    <!-- Nose -->
    <polygon points="2,1.6 1.9,1.8 2.1,1.8" fill="#DAA520"/>
    <!-- Mouth -->
    <path d="M 1.8,1.9 Q 2,2.1 2.2,1.9" stroke="#333" stroke-width="0.1" fill="none"/>
    <!-- Whiskers -->
    <line x1="0.8" y1="1.5" x2="1.3" y2="1.4" stroke="#666" stroke-width="0.08"/>
    <line x1="0.8" y1="1.7" x2="1.3" y2="1.6" stroke="#666" stroke-width="0.08"/>
    <line x1="2.7" y1="1.4" x2="3.2" y2="1.5" stroke="#666" stroke-width="0.08"/>
    <line x1="2.7" y1="1.6" x2="3.2" y2="1.7" stroke="#666" stroke-width="0.08"/>
    <!-- Tail -->
    <path d="M 3.5,4 Q 4.5,3 4,2" stroke="#D2B48C" stroke-width="0.4" fill="none" stroke-linecap="round"/>
  </g>
  
  <!-- Code symbols around cats -->
  <text x="2" y="13" font-family="monospace" font-size="1.8" fill="#fff" text-anchor="middle" font-weight="bold">&lt;/&gt;</text>
  <text x="14" y="13" font-family="monospace" font-size="1.8" fill="#fff" text-anchor="middle" font-weight="bold">API</text>
  
  <!-- Small hearts -->
  <path d="M 8,2.5 Q 7.5,2 7,2.5 Q 7.5,3 8,2.5 Q 8.5,3 9,2.5 Q 8.5,2 8,2.5" fill="#9370DB" opacity="0.8"/>
</svg>